<?xml version="1.0" standalone="no"?>
<!DOCTYPE svg PUBLIC "-//W3C//DTD SVG 20010904//EN"
 "http://www.w3.org/TR/2001/REC-SVG-20010904/DTD/svg10.dtd">
<svg version="1.0" xmlns="http://www.w3.org/2000/svg"
 width="1280.000000pt" height="766.000000pt" viewBox="0 0 1280.000000 766.000000"
 preserveAspectRatio="xMidYMid meet">
<metadata>
Created by potrace 1.15, written by Peter Selinger 2001-2017
</metadata>
<g transform="translate(0.000000,766.000000) scale(0.100000,-0.100000)"
fill="#FFFFFF" stroke="none">
<path d="M4580 5408 c-13 -17 -26 -45 -29 -61 -5 -24 -12 -30 -36 -33 -17 -1
-68 -10 -115 -19 -47 -8 -157 -27 -245 -40 -88 -14 -167 -28 -175 -31 -8 -3
-76 -16 -150 -29 -74 -13 -146 -26 -160 -30 -14 -3 -41 -7 -60 -9 -19 -2 -42
-5 -50 -8 -8 -3 -67 -13 -130 -23 -63 -9 -126 -21 -140 -26 -14 -5 -47 -10
-75 -12 -27 -2 -57 -7 -65 -10 -8 -3 -64 -13 -125 -22 -60 -9 -126 -20 -145
-25 -19 -5 -109 -21 -200 -35 -91 -14 -196 -32 -235 -40 -148 -29 -301 -55
-326 -55 -14 0 -39 -4 -55 -10 -16 -5 -76 -14 -133 -19 -88 -8 -109 -8 -134 6
-42 21 -119 3 -188 -43 -28 -19 -55 -34 -60 -34 -18 0 -31 -85 -24 -155 4 -38
8 -88 10 -110 8 -113 41 -280 66 -330 22 -45 40 -51 111 -36 35 8 71 13 81 13
10 0 30 4 44 9 15 5 56 12 92 15 36 2 84 10 106 15 22 6 78 17 124 24 83 12
83 12 135 -16 53 -30 69 -30 176 -8 25 5 88 5 143 1 73 -6 103 -4 122 6 14 7
58 13 98 13 69 0 73 -1 100 -33 28 -32 29 -35 23 -120 -6 -95 2 -130 37 -161
39 -34 87 -48 186 -53 53 -2 146 -9 206 -15 61 -5 156 -7 211 -4 l101 6 6 -46
c10 -72 40 -120 86 -138 51 -21 54 -27 35 -73 -11 -27 -14 -52 -9 -88 9 -74
39 -120 99 -152 28 -15 52 -28 54 -29 1 -1 -7 -32 -19 -68 -27 -81 -21 -109
33 -159 51 -47 200 -108 277 -113 31 -2 57 -4 59 -4 2 -1 -6 -13 -16 -29 -40
-56 -2 -112 103 -151 66 -25 102 -26 215 -6 121 21 387 63 439 70 23 3 47 7
51 10 9 6 5 60 -6 89 -6 17 -4 18 17 12 83 -27 139 -12 173 45 24 41 37 87 25
94 -5 4 -9 26 -9 51 l0 44 44 0 c64 0 168 26 223 56 68 36 109 31 543 -63 41
-9 82 -17 90 -18 8 -1 67 -10 130 -20 63 -9 126 -17 140 -18 14 0 74 -8 133
-18 59 -10 147 -21 195 -24 48 -3 105 -8 127 -11 63 -8 285 -54 340 -69 28 -8
97 -23 155 -34 178 -33 231 -38 510 -47 118 -3 217 -7 220 -9 3 -1 115 10 250
26 135 15 268 28 295 28 53 1 139 -32 164 -63 8 -9 31 -24 50 -32 20 -8 47
-25 61 -38 32 -30 133 -57 201 -55 30 1 96 -3 147 -10 51 -7 110 -10 131 -7
173 24 373 112 471 206 35 33 71 60 83 60 11 0 70 -34 131 -75 106 -72 114
-75 168 -75 32 0 78 7 103 15 25 9 65 15 90 14 29 -2 51 3 62 13 36 32 68 40
197 54 247 25 291 33 371 64 94 37 127 47 177 55 33 5 39 11 67 71 17 37 31
70 31 74 0 4 -11 24 -25 44 -16 23 -29 62 -35 104 -30 199 -32 220 -21 240 6
12 11 41 11 67 0 25 5 77 11 114 7 46 7 91 1 137 l-10 69 65 120 c75 139 86
153 133 172 38 16 90 68 90 90 0 7 9 29 19 49 15 28 17 42 10 61 -8 20 -4 34
16 69 18 31 25 57 25 96 0 47 -4 58 -30 83 -19 18 -30 39 -30 56 0 16 -8 34
-19 41 -13 9 -22 32 -27 66 -5 43 -16 65 -58 117 -29 36 -57 84 -63 108 -7 23
-24 53 -38 67 -23 21 -37 25 -97 27 -58 2 -80 -3 -119 -23 -27 -13 -51 -23
-53 -22 -2 2 -13 -5 -24 -15 -11 -10 -35 -19 -53 -20 -28 -2 -34 -7 -47 -44
-10 -25 -24 -44 -36 -48 -42 -12 -194 -16 -201 -6 -12 20 -157 12 -261 -13
-54 -13 -117 -27 -138 -31 -68 -12 -154 -63 -234 -139 l-77 -74 -69 -1 c-37
-1 -73 -4 -78 -7 -5 -3 -17 1 -26 9 -52 47 -182 131 -236 153 -33 13 -70 29
-80 36 -26 14 -142 38 -186 38 -19 -1 -46 -7 -60 -15 -14 -8 -37 -14 -52 -15
-20 0 -34 -10 -53 -37 -14 -21 -25 -43 -25 -49 0 -14 -87 -85 -146 -120 -42
-25 -42 -25 -115 -9 -41 9 -81 17 -89 17 -8 0 -35 5 -60 10 -60 13 -284 12
-394 -2 -48 -6 -114 -19 -145 -30 -101 -34 -149 -45 -249 -55 -125 -12 -365
-78 -602 -166 -47 -17 -94 -33 -105 -36 -11 -3 -29 -8 -40 -13 -11 -4 -45 -13
-75 -19 -133 -25 -184 -28 -515 -22 -56 1 -114 -3 -129 -9 -16 -6 -47 -13 -70
-15 -22 -3 -54 -8 -71 -11 -48 -10 -175 -13 -197 -5 -29 10 -223 -22 -257 -43
-18 -11 -168 -9 -271 4 -73 9 -113 21 -175 50 -44 21 -110 52 -147 68 -36 17
-86 44 -110 62 -24 17 -65 45 -92 61 l-49 31 26 24 c25 23 26 27 12 47 -8 12
-28 31 -45 42 -38 25 -36 45 18 168 48 106 59 120 91 114 13 -3 31 -3 38 0 17
7 17 53 -2 80 -19 27 -106 83 -129 83 -18 0 -91 -52 -113 -80 -10 -13 -16 -11
-42 14 -17 16 -39 46 -49 65 -10 20 -32 42 -49 50 -17 8 -37 24 -44 37 -10 19
-21 24 -51 24 -21 0 -38 4 -38 8 0 5 -20 23 -45 40 -59 42 -94 42 -125 0z
m-1068 -1174 c8 -163 24 -217 76 -261 14 -12 23 -26 18 -30 -10 -10 -125 -10
-321 -1 -147 7 -150 8 -174 35 -22 25 -23 32 -17 101 15 164 98 240 286 263
52 6 97 13 99 15 18 17 27 -17 33 -122z"/>
</g>
</svg>
